<?xml version="1.0" encoding="UTF-8" standalone="no"?>
<svg width="285px" height="252px" viewBox="0 0 285 252" version="1.1" xmlns="http://www.w3.org/2000/svg" xmlns:xlink="http://www.w3.org/1999/xlink" xmlns:sketch="http://www.bohemiancoding.com/sketch/ns">
    <!-- Generator: Sketch 3.4 (15575) - http://www.bohemiancoding.com/sketch -->
    <title>Clip 2</title>
    <desc>Created with Sketch.</desc>
    <defs></defs>
    <g id="Page-1" stroke="none" stroke-width="1" fill="none" fill-rule="evenodd" sketch:type="MSPage">
        <g id="Desktop-HD-Copy-12" sketch:type="MSArtboardGroup" transform="translate(-1257.000000, -297.000000)" fill="#FF2500">
            <g id="Page-1" sketch:type="MSLayerGroup" transform="translate(1383.500000, 448.500000) scale(-1, 1) translate(-1383.500000, -448.500000) translate(1210.000000, 275.000000)">
                <path d="M27.1824589,264.093144 L19.3274247,250.488842 L15.2109589,252.865555 L25.9061644,271.389651 L27.0945205,273.45026 L47.679226,261.566699 L45.3025137,257.450233 L31.800411,265.245849 C57.2906507,136.413781 166.072774,37.5377945 299.693918,27.0636233 L299.693918,27.0636233 C299.544185,25.9845959 299.465753,24.8841781 299.465753,23.7671233 L299.465753,23.7671233 C299.465753,23.2775205 299.480014,22.7902945 299.508534,22.3101986 L299.508534,22.3101986 C163.741219,32.8628014 53.1741849,133.248 27.1824589,264.093144 L27.1824589,264.093144 Z" id="Clip-2" sketch:type="MSShapeGroup"></path>
            </g>
        </g>
    </g>
</svg>