<?xml version="1.0" encoding="UTF-8" standalone="no"?>
<svg width="48px" height="48px" viewBox="0 0 48 48" version="1.1" xmlns="http://www.w3.org/2000/svg" xmlns:xlink="http://www.w3.org/1999/xlink" xmlns:sketch="http://www.bohemiancoding.com/sketch/ns">
    <!-- Generator: Sketch 3.4 (15575) - http://www.bohemiancoding.com/sketch -->
    <title>Clip 8 + Clip 5</title>
    <desc>Created with Sketch.</desc>
    <defs></defs>
    <g id="Page-1" stroke="none" stroke-width="1" fill="none" fill-rule="evenodd" sketch:type="MSPage">
        <g id="Desktop-HD-Copy-10" sketch:type="MSArtboardGroup" transform="translate(-1211.000000, -275.000000)" fill="#FF2500">
            <g id="Page-1" sketch:type="MSLayerGroup" transform="translate(912.000000, 275.000000)">
                <g id="Clip-8-+-Clip-5" transform="translate(299.000000, 0.000000)" sketch:type="MSShapeGroup">
                    <path d="M9.97260274,23.7671233 C9.97260274,31.6435479 16.3564521,38.0273973 24.2328767,38.0273973 C32.1093014,38.0273973 38.4931507,31.6435479 38.4931507,23.7671233 C38.4931507,15.8906986 32.1093014,9.50684932 24.2328767,9.50684932 C16.3564521,9.50684932 9.97260274,15.8906986 9.97260274,23.7671233 L9.97260274,23.7671233 Z" id="Clip-8"></path>
                    <path d="M0.465753425,23.7671233 C0.465753425,36.8937055 11.1062945,47.5342466 24.2328767,47.5342466 L24.2328767,47.5342466 C37.3594589,47.5342466 48,36.8937055 48,23.7671233 L48,23.7671233 C48,10.6405411 37.3594589,0 24.2328767,0 L24.2328767,0 C11.1062945,0 0.465753425,10.6405411 0.465753425,23.7671233 L0.465753425,23.7671233 Z M5.21917808,23.7671233 C5.21917808,13.2668082 13.7301849,4.75342466 24.2328767,4.75342466 L24.2328767,4.75342466 C34.7331918,4.75342466 43.2465753,13.2668082 43.2465753,23.7671233 L43.2465753,23.7671233 C43.2465753,34.2698151 34.7331918,42.7808219 24.2328767,42.7808219 L24.2328767,42.7808219 C13.7301849,42.7808219 5.21917808,34.2698151 5.21917808,23.7671233 L5.21917808,23.7671233 Z" id="Clip-5"></path>
                </g>
            </g>
        </g>
    </g>
</svg>