<?xml version="1.0" encoding="UTF-8" standalone="no"?>
<svg width="347px" height="347px" viewBox="0 0 347 347" version="1.1" xmlns="http://www.w3.org/2000/svg" xmlns:xlink="http://www.w3.org/1999/xlink" xmlns:sketch="http://www.bohemiancoding.com/sketch/ns">
    <!-- Generator: Sketch 3.4 (15575) - http://www.bohemiancoding.com/sketch -->
    <title>Page 1</title>
    <desc>Created with Sketch.</desc>
    <defs></defs>
    <g id="Page-1" stroke="none" stroke-width="1" fill="none" fill-rule="evenodd" sketch:type="MSPage">
        <g id="Desktop-HD-Copy-27" sketch:type="MSArtboardGroup" transform="translate(-1210.000000, -275.000000)" fill="#FF2500">
            <g id="Page-1" sketch:type="MSLayerGroup" transform="translate(1383.500000, 448.500000) scale(-1, 1) translate(-1383.500000, -448.500000) translate(1210.000000, 275.000000)">
                <path d="M0,323.232877 C0,336.359459 10.6405411,347 23.7671233,347 L23.7671233,347 C36.8937055,347 47.5342466,336.359459 47.5342466,323.232877 L47.5342466,323.232877 C47.5342466,310.106295 36.8937055,299.465753 23.7671233,299.465753 L23.7671233,299.465753 C10.6405411,299.465753 0,310.106295 0,323.232877 L0,323.232877 Z M4.75342466,323.232877 C4.75342466,312.732562 13.2644315,304.219178 23.7671233,304.219178 L23.7671233,304.219178 C34.2674384,304.219178 42.7808219,312.732562 42.7808219,323.232877 L42.7808219,323.232877 C42.7808219,333.735568 34.2674384,342.246575 23.7671233,342.246575 L23.7671233,342.246575 C13.2644315,342.246575 4.75342466,333.735568 4.75342466,323.232877 L4.75342466,323.232877 Z" id="Clip-11" sketch:type="MSShapeGroup"></path>
                <path d="M9.50684932,323.232877 C9.50684932,331.109301 15.8906986,337.493151 23.7671233,337.493151 C31.6435479,337.493151 38.0273973,331.109301 38.0273973,323.232877 C38.0273973,315.356452 31.6435479,308.972603 23.7671233,308.972603 C15.8906986,308.972603 9.50684932,315.356452 9.50684932,323.232877 L9.50684932,323.232877 Z" id="Clip-14" sketch:type="MSShapeGroup"></path>
                <path d="M308.972603,23.7671233 C308.972603,31.6435479 315.356452,38.0273973 323.232877,38.0273973 C331.109301,38.0273973 337.493151,31.6435479 337.493151,23.7671233 C337.493151,15.8906986 331.109301,9.50684932 323.232877,9.50684932 C315.356452,9.50684932 308.972603,15.8906986 308.972603,23.7671233 L308.972603,23.7671233 Z" id="Clip-8" sketch:type="MSShapeGroup"></path>
                <path d="M299.465753,23.7671233 C299.465753,36.8937055 310.106295,47.5342466 323.232877,47.5342466 L323.232877,47.5342466 C336.359459,47.5342466 347,36.8937055 347,23.7671233 L347,23.7671233 C347,10.6405411 336.359459,0 323.232877,0 L323.232877,0 C310.106295,0 299.465753,10.6405411 299.465753,23.7671233 L299.465753,23.7671233 Z M304.219178,23.7671233 C304.219178,13.2668082 312.730185,4.75342466 323.232877,4.75342466 L323.232877,4.75342466 C333.733192,4.75342466 342.246575,13.2668082 342.246575,23.7671233 L342.246575,23.7671233 C342.246575,34.2698151 333.733192,42.7808219 323.232877,42.7808219 L323.232877,42.7808219 C312.730185,42.7808219 304.219178,34.2698151 304.219178,23.7671233 L304.219178,23.7671233 Z" id="Clip-5" sketch:type="MSShapeGroup"></path>
                <path d="M27.1824589,264.093144 L19.3274247,250.488842 L15.2109589,252.865555 L25.9061644,271.389651 L27.0945205,273.45026 L47.679226,261.566699 L45.3025137,257.450233 L31.800411,265.245849 C57.2906507,136.413781 166.072774,37.5377945 299.693918,27.0636233 L299.693918,27.0636233 C299.544185,25.9845959 299.465753,24.8841781 299.465753,23.7671233 L299.465753,23.7671233 C299.465753,23.2775205 299.480014,22.7902945 299.508534,22.3101986 L299.508534,22.3101986 C163.741219,32.8628014 53.1741849,133.248 27.1824589,264.093144 L27.1824589,264.093144 Z" id="Clip-2" sketch:type="MSShapeGroup"></path>
            </g>
        </g>
    </g>
</svg>