<?xml version="1.0" encoding="UTF-8" standalone="no"?>
<svg width="347px" height="347px" viewBox="0 0 347 347" version="1.1" xmlns="http://www.w3.org/2000/svg" xmlns:xlink="http://www.w3.org/1999/xlink" xmlns:sketch="http://www.bohemiancoding.com/sketch/ns">
    <!-- Generator: Sketch 3.4 (15575) - http://www.bohemiancoding.com/sketch -->
    <title>Page 1</title>
    <desc>Created with Sketch.</desc>
    <defs></defs>
    <g id="Page-1" stroke="none" stroke-width="1" fill="none" fill-rule="evenodd" sketch:type="MSPage">
        <g id="Desktop-HD-Copy-10" sketch:type="MSArtboardGroup" transform="translate(-912.000000, -275.000000)" fill="#FF2500">
            <g id="Page-1" sketch:type="MSLayerGroup" transform="translate(912.000000, 275.000000)">
                <path d="M0,323.232877 C0,336.359459 10.6405411,347 23.7671233,347 L23.7671233,347 C36.8937055,347 47.5342466,336.359459 47.5342466,323.232877 L47.5342466,323.232877 C47.5342466,310.106295 36.8937055,299.465753 23.7671233,299.465753 L23.7671233,299.465753 C10.6405411,299.465753 0,310.106295 0,323.232877 L0,323.232877 Z M4.75342466,323.232877 C4.75342466,312.732562 13.2644315,304.219178 23.7671233,304.219178 L23.7671233,304.219178 C34.2674384,304.219178 42.7808219,312.732562 42.7808219,323.232877 L42.7808219,323.232877 C42.7808219,333.735568 34.2674384,342.246575 23.7671233,342.246575 L23.7671233,342.246575 C13.2644315,342.246575 4.75342466,333.735568 4.75342466,323.232877 L4.75342466,323.232877 Z" id="Clip-11" sketch:type="MSShapeGroup"></path>
                <path d="M9.50684932,323.232877 C9.50684932,331.109301 15.8906986,337.493151 23.7671233,337.493151 C31.6435479,337.493151 38.0273973,331.109301 38.0273973,323.232877 C38.0273973,315.356452 31.6435479,308.972603 23.7671233,308.972603 C15.8906986,308.972603 9.50684932,315.356452 9.50684932,323.232877 L9.50684932,323.232877 Z" id="Clip-14" sketch:type="MSShapeGroup"></path>
                <g id="Clip-8-+-Clip-5" transform="translate(299.000000, 0.000000)" sketch:type="MSShapeGroup">
                    <path d="M9.97260274,23.7671233 C9.97260274,31.6435479 16.3564521,38.0273973 24.2328767,38.0273973 C32.1093014,38.0273973 38.4931507,31.6435479 38.4931507,23.7671233 C38.4931507,15.8906986 32.1093014,9.50684932 24.2328767,9.50684932 C16.3564521,9.50684932 9.97260274,15.8906986 9.97260274,23.7671233 L9.97260274,23.7671233 Z" id="Clip-8"></path>
                    <path d="M0.465753425,23.7671233 C0.465753425,36.8937055 11.1062945,47.5342466 24.2328767,47.5342466 L24.2328767,47.5342466 C37.3594589,47.5342466 48,36.8937055 48,23.7671233 L48,23.7671233 C48,10.6405411 37.3594589,0 24.2328767,0 L24.2328767,0 C11.1062945,0 0.465753425,10.6405411 0.465753425,23.7671233 L0.465753425,23.7671233 Z M5.21917808,23.7671233 C5.21917808,13.2668082 13.7301849,4.75342466 24.2328767,4.75342466 L24.2328767,4.75342466 C34.7331918,4.75342466 43.2465753,13.2668082 43.2465753,23.7671233 L43.2465753,23.7671233 C43.2465753,34.2698151 34.7331918,42.7808219 24.2328767,42.7808219 L24.2328767,42.7808219 C13.7301849,42.7808219 5.21917808,34.2698151 5.21917808,23.7671233 L5.21917808,23.7671233 Z" id="Clip-5"></path>
                </g>
                <path d="M27.1824589,264.093144 L19.3274247,250.488842 L15.2109589,252.865555 L25.9061644,271.389651 L27.0945205,273.45026 L47.679226,261.566699 L45.3025137,257.450233 L31.800411,265.245849 C57.2906507,136.413781 166.072774,37.5377945 299.693918,27.0636233 L299.693918,27.0636233 C299.544185,25.9845959 299.465753,24.8841781 299.465753,23.7671233 L299.465753,23.7671233 C299.465753,23.2775205 299.480014,22.7902945 299.508534,22.3101986 L299.508534,22.3101986 C163.741219,32.8628014 53.1741849,133.248 27.1824589,264.093144 L27.1824589,264.093144 Z" id="Clip-2" sketch:type="MSShapeGroup"></path>
            </g>
        </g>
    </g>
</svg>