<?xml version="1.0" encoding="UTF-8" standalone="no"?>
<svg width="43px" height="43px" viewBox="0 0 43 43" version="1.1" xmlns="http://www.w3.org/2000/svg" xmlns:xlink="http://www.w3.org/1999/xlink">
    <!-- Generator: Sketch 3.6.1 (26313) - http://www.bohemiancoding.com/sketch -->
    <title>Shape</title>
    <desc>Created with Sketch.</desc>
    <defs></defs>
    <g id="Page-1" stroke="none" stroke-width="1" fill="none" fill-rule="evenodd">
        <path d="M32.25,21.5 C32.25,17.2836111 29.8133333,13.6405556 26.2777778,11.8847222 L26.2777778,17.1641667 L32.1425,23.0288889 C32.2141667,22.5272222 32.25,22.0136111 32.25,21.5 L32.25,21.5 Z M38.2222222,21.5 C38.2222222,23.7455556 37.7325,25.8597222 36.9322222,27.8066667 L40.5513889,31.4258333 C42.1041667,28.4516667 43,25.0833333 43,21.5 C43,11.2755556 35.8452778,2.72333333 26.2777778,0.549444444 L26.2777778,5.4825 C33.1816667,7.53694444 38.2222222,13.9272222 38.2222222,21.5 L38.2222222,21.5 Z M3.04583333,0 L0,3.04583333 L11.2875,14.3333333 L0,14.3333333 L0,28.6666667 L9.55555556,28.6666667 L21.5,40.6111111 L21.5,24.5458333 L31.6647222,34.7105556 C30.0641667,35.9408333 28.2605556,36.9322222 26.2777778,37.5294444 L26.2777778,42.4625 C29.5625,41.71 32.5605556,40.205 35.0808333,38.1386111 L39.9541667,43 L43,39.9541667 L21.5,18.4541667 L3.04583333,0 L3.04583333,0 Z M21.5,2.38888889 L16.5072222,7.38166667 L21.5,12.3744444 L21.5,2.38888889 L21.5,2.38888889 Z" id="Shape" fill="#FFFFFF"></path>
    </g>
</svg>