<?xml version="1.0" encoding="UTF-8" standalone="no"?>
<svg width="18px" height="18px" viewBox="0 0 18 18" version="1.1" xmlns="http://www.w3.org/2000/svg" xmlns:xlink="http://www.w3.org/1999/xlink">
    <!-- Generator: Sketch 3.6.1 (26313) - http://www.bohemiancoding.com/sketch -->
    <title>ic volume off 24 px</title>
    <desc>Created with Sketch.</desc>
    <defs></defs>
    <g id="Page-1" stroke="none" stroke-width="1" fill="none" fill-rule="evenodd">
        <g id="ic-volume-off-24-px" transform="translate(-3.000000, -3.000000)">
            <g id="Group">
                <path d="M16.5,12 C16.5,10.23 15.48,8.71 14,7.97 L14,10.18 L16.45,12.63 C16.48,12.43 16.5,12.22 16.5,12 L16.5,12 Z M19,12 C19,12.94 18.8,13.82 18.46,14.64 L19.97,16.15 C20.63,14.91 21,13.5 21,12 C21,7.72 18.01,4.14 14,3.23 L14,5.29 C16.89,6.15 19,8.83 19,12 L19,12 Z M4.27,3 L3,4.27 L7.73,9 L3,9 L3,15 L7,15 L12,20 L12,13.27 L16.25,17.52 C15.58,18.04 14.83,18.45 14,18.7 L14,20.76 C15.38,20.45 16.63,19.81 17.69,18.95 L19.73,21 L21,19.73 L12,10.73 L4.27,3 L4.27,3 Z M12,4 L9.91,6.09 L12,8.18 L12,4 L12,4 Z" id="Shape" fill="#FFFFFF"></path>
                <path d="M0,0 L24,0 L24,24 L0,24 L0,0 Z" id="Shape"></path>
            </g>
        </g>
    </g>
</svg>