<?xml version="1.0" encoding="UTF-8" standalone="no"?>
<svg width="45px" height="44px" viewBox="0 0 45 44" version="1.1" xmlns="http://www.w3.org/2000/svg" xmlns:xlink="http://www.w3.org/1999/xlink">
    <!-- Generator: Sketch 3.6.1 (26313) - http://www.bohemiancoding.com/sketch -->
    <title>Shape</title>
    <desc>Created with Sketch.</desc>
    <defs></defs>
    <g id="Page-1" stroke="none" stroke-width="1" fill="none" fill-rule="evenodd">
        <g id="1080-copy-4" transform="translate(-1792.000000, -73.000000)" fill="#FFFFFF">
            <path d="M1792,87.171699 L1792,101.908301 L1801.8244,101.908301 L1814.1049,114.188803 L1814.1049,74.8911973 L1801.8244,87.171699 L1792,87.171699 L1792,87.171699 Z M1825.15735,94.54 C1825.15735,90.2049829 1822.65213,86.4594299 1819.0171,84.6541961 L1819.0171,104.438084 C1822.65213,102.62057 1825.15735,98.8750171 1825.15735,94.54 L1825.15735,94.54 Z M1819.0171,73 L1819.0171,78.0718472 C1826.11523,80.1840935 1831.29761,86.7541619 1831.29761,94.54 C1831.29761,102.325838 1826.11523,108.895906 1819.0171,111.008153 L1819.0171,116.08 C1828.85379,113.844949 1836.20981,105.06439 1836.20981,94.54 C1836.20981,84.01561 1828.85379,75.2350513 1819.0171,73 L1819.0171,73 Z" id="Shape"></path>
        </g>
    </g>
</svg>